<?xml version="1.0" encoding="utf-8"?>
<!-- Generator: Adobe Illustrator 16.0.4, SVG Export Plug-In . SVG Version: 6.00 Build 0)  -->
<!DOCTYPE svg PUBLIC "-//W3C//DTD SVG 1.1//EN" "http://www.w3.org/Graphics/SVG/1.1/DTD/svg11.dtd">
<svg version="1.1"
	 id="svg2" xmlns:dc="http://purl.org/dc/elements/1.1/" xmlns:cc="http://creativecommons.org/ns#" xmlns:rdf="http://www.w3.org/1999/02/22-rdf-syntax-ns#" xmlns:svg="http://www.w3.org/2000/svg" xmlns:sodipodi="http://sodipodi.sourceforge.net/DTD/sodipodi-0.dtd" xmlns:inkscape="http://www.inkscape.org/namespaces/inkscape" sodipodi:docname="flower.svg" inkscape:version="0.48.3.1 r9886"
	 xmlns="http://www.w3.org/2000/svg" xmlns:xlink="http://www.w3.org/1999/xlink" x="0px" y="0px" width="48px" height="48px"
	 viewBox="0 0 48 48" enable-background="new 0 0 48 48" xml:space="preserve">
<sodipodi:namedview  showgrid="false" inkscape:cy="23.59251" inkscape:cx="24.890538" inkscape:zoom="11.229167" borderopacity="1.0" bordercolor="#666666" pagecolor="#ffffff" id="base" inkscape:window-maximized="1" inkscape:window-y="27" inkscape:window-x="0" inkscape:window-height="741" inkscape:current-layer="layer1" inkscape:document-units="px" inkscape:pageopacity="0.0" inkscape:window-width="1280" inkscape:pageshadow="2">
	</sodipodi:namedview>
<g id="layer1" transform="translate(0,-1004.3623)" inkscape:label="Layer 1" inkscape:groupmode="layer">
	
		<path id="path3798" sodipodi:rx="6.1447124" sodipodi:cx="16.296846" sodipodi:cy="14.693877" sodipodi:type="arc" sodipodi:ry="6.1447124" inkscape:transform-center-y="-15.126664" inkscape:transform-center-x="-5.5885905" fill="#A4DEF6" stroke="#000000" d="
		M32.65,1018.819c-3.01,1.738-6.859,0.708-8.597-2.302c-1.738-3.01-0.708-6.858,2.302-8.597c0,0,0.001,0,0.002-0.001
		c3.009-1.738,6.857-0.708,8.596,2.302C36.691,1013.231,35.661,1017.08,32.65,1018.819
		C32.65,1018.818,32.65,1018.818,32.65,1018.819z"/>
	
		<path id="path3778" sodipodi:rx="6.1447124" sodipodi:cx="16.296846" sodipodi:cy="14.693877" sodipodi:type="arc" sodipodi:ry="6.1447124" inkscape:transform-center-y="-12.403311" inkscape:transform-center-x="10.305656" fill="#A4DEF6" stroke="#000000" d="
		M19.902,1016.092c0,3.475-2.816,6.293-6.292,6.294c-3.475,0-6.293-2.816-6.293-6.292c0,0,0-0.001,0-0.002
		c-0.001-3.476,2.816-6.293,6.292-6.294s6.293,2.816,6.294,6.292C19.902,1016.091,19.902,1016.092,19.902,1016.092z"/>
	
		<path id="path3782" sodipodi:rx="6.1447124" sodipodi:cx="16.296846" sodipodi:cy="14.693877" sodipodi:type="arc" sodipodi:ry="6.1447124" inkscape:transform-center-y="2.7234491" inkscape:transform-center-x="15.894358" fill="#A4DEF6" stroke="#000000" d="
		M11.167,1025.769c3.01,1.737,4.042,5.585,2.305,8.595c-1.737,3.011-5.586,4.043-8.596,2.306c0-0.001-0.001-0.001-0.001-0.001
		c-3.01-1.737-4.042-5.586-2.305-8.596c1.737-3.01,5.585-4.042,8.596-2.305C11.166,1025.769,11.166,1025.769,11.167,1025.769z"/>
	
		<path id="path3786" sodipodi:rx="6.1447124" sodipodi:cx="16.296846" sodipodi:cy="14.693877" sodipodi:type="arc" sodipodi:ry="6.1447124" inkscape:transform-center-y="15.126665" inkscape:transform-center-x="5.5886362" fill="#A4DEF6" stroke="#000000" d="
		M15.18,1038.173c3.009-1.738,6.858-0.708,8.597,2.301c1.737,3.01,0.708,6.859-2.302,8.598c0,0-0.001,0-0.001,0
		c-3.01,1.738-6.858,0.708-8.597-2.301c-1.738-3.01-0.708-6.859,2.302-8.598C15.178,1038.173,15.179,1038.173,15.18,1038.173z"/>
	
		<path id="path3790" sodipodi:rx="6.1447124" sodipodi:cx="16.296846" sodipodi:cy="14.693877" sodipodi:type="arc" sodipodi:ry="6.1447124" inkscape:transform-center-y="12.403122" inkscape:transform-center-x="-10.305705" fill="#A4DEF6" stroke="#000000" d="
		M27.928,1040.898c-0.001-3.476,2.816-6.293,6.291-6.294c3.477,0,6.294,2.816,6.295,6.292c0,0.001,0,0.001,0,0.002
		c0,3.476-2.816,6.294-6.293,6.294c-3.475,0-6.293-2.816-6.293-6.292C27.928,1040.899,27.928,1040.899,27.928,1040.898z"/>
	
		<path id="path3794" sodipodi:rx="6.1447124" sodipodi:cx="16.296846" sodipodi:cy="14.693877" sodipodi:type="arc" sodipodi:ry="6.1447124" inkscape:transform-center-y="-2.7234382" inkscape:transform-center-x="-15.89431" fill="#A4DEF6" stroke="#000000" d="
		M36.662,1031.222c-3.01-1.737-4.041-5.585-2.305-8.596c1.738-3.01,5.586-4.042,8.596-2.305c0.001,0,0.002,0,0.002,0.001
		c3.01,1.737,4.043,5.586,2.305,8.596c-1.736,3.011-5.586,4.042-8.596,2.305C36.664,1031.223,36.663,1031.222,36.662,1031.222z"/>
	
		<path id="path3792" sodipodi:rx="6.1447124" sodipodi:cx="16.296846" sodipodi:cy="14.693877" sodipodi:type="arc" sodipodi:ry="6.1447124" inkscape:transform-center-y="5.5885296" inkscape:transform-center-x="-15.126597" fill="#E0F3FD" stroke="#000000" d="
		M33.592,1037.18c-1.738-3.01-0.708-6.858,2.302-8.597c3.009-1.738,6.858-0.708,8.597,2.303c0,0,0,0,0.001,0.001
		c1.737,3.01,0.708,6.858-2.302,8.597s-6.859,0.707-8.598-2.302C33.592,1037.181,33.592,1037.181,33.592,1037.18z"/>
	
		<path id="path3796" sodipodi:rx="6.1447124" sodipodi:cx="16.296846" sodipodi:cy="14.693877" sodipodi:type="arc" sodipodi:ry="6.1447124" inkscape:transform-center-y="-10.305701" inkscape:transform-center-x="-12.403161" fill="#E0F3FD" stroke="#000000" d="
		M36.318,1024.432c-3.477,0.001-6.294-2.816-6.295-6.292c0-3.476,2.816-6.293,6.293-6.294c0,0,0.001,0,0.002,0
		c3.475,0,6.293,2.816,6.293,6.292c0.001,3.475-2.816,6.293-6.291,6.293C36.319,1024.432,36.318,1024.432,36.318,1024.432z"/>
	
		<path id="path3800" sodipodi:rx="6.1447124" sodipodi:cx="16.296846" sodipodi:cy="14.693877" sodipodi:type="arc" sodipodi:ry="6.1447124" inkscape:transform-center-y="-15.894306" inkscape:transform-center-x="2.7234362" fill="#FF00FF" stroke="#000000" d="
		M26.641,1015.748c-1.736,3.01-5.585,4.042-8.595,2.305c-3.01-1.737-4.042-5.586-2.305-8.596c0-0.001,0.001-0.001,0.001-0.002
		c1.737-3.01,5.585-4.042,8.596-2.305s4.042,5.586,2.305,8.596C26.642,1015.747,26.641,1015.748,26.641,1015.748z"/>
	
		<path id="path3802" sodipodi:rx="6.1447124" sodipodi:cx="16.296846" sodipodi:cy="14.693877" sodipodi:type="arc" sodipodi:ry="6.1447124" inkscape:transform-center-y="-15.894306" inkscape:transform-center-x="2.7234362" fill="#E0F3FD" stroke="#000000" d="
		M26.641,1015.697c-1.736,3.01-5.585,4.042-8.595,2.305c-3.01-1.737-4.042-5.586-2.305-8.596c0-0.001,0.001-0.001,0.001-0.002
		c1.737-3.01,5.585-4.042,8.596-2.305s4.042,5.586,2.305,8.596C26.642,1015.696,26.641,1015.697,26.641,1015.697z"/>
	
		<path id="path3788" sodipodi:rx="6.1447124" sodipodi:cx="16.296846" sodipodi:cy="14.693877" sodipodi:type="arc" sodipodi:ry="6.1447124" inkscape:transform-center-y="15.894336" inkscape:transform-center-x="-2.7234095" fill="#E0F3FD" stroke="#000000" d="
		M21.188,1041.192c1.737-3.01,5.585-4.041,8.596-2.305c3.011,1.737,4.042,5.586,2.305,8.596c-0.001,0.001-0.001,0.002-0.001,0.002
		c-1.737,3.01-5.586,4.042-8.596,2.305c-3.01-1.737-4.042-5.586-2.305-8.596C21.188,1041.194,21.188,1041.193,21.188,1041.192z"/>
	
		<path id="path3784" sodipodi:rx="6.1447124" sodipodi:cx="16.296846" sodipodi:cy="14.693877" sodipodi:type="arc" sodipodi:ry="6.1447124" inkscape:transform-center-y="10.305712" inkscape:transform-center-x="12.403226" fill="#E0F3FD" stroke="#000000" d="
		M11.511,1032.458c3.476-0.001,6.293,2.816,6.294,6.291c0,3.476-2.816,6.293-6.292,6.294c-0.001,0-0.001,0-0.002,0
		c-3.475,0.001-6.293-2.816-6.293-6.292c-0.001-3.475,2.816-6.293,6.292-6.293C11.51,1032.458,11.511,1032.458,11.511,1032.458z"/>
	
		<path id="path3780" sodipodi:rx="6.1447124" sodipodi:cx="16.296846" sodipodi:cy="14.693877" sodipodi:type="arc" sodipodi:ry="6.1447124" inkscape:transform-center-y="-5.5887186" inkscape:transform-center-x="15.126598" fill="#E0F3FD" stroke="#000000" d="
		M14.238,1019.76c1.738,3.01,0.708,6.858-2.302,8.597c-3.01,1.738-6.858,0.708-8.597-2.302c0-0.001,0-0.001-0.001-0.002
		c-1.738-3.01-0.708-6.858,2.302-8.597c3.01-1.738,6.858-0.708,8.597,2.302C14.237,1019.759,14.237,1019.76,14.238,1019.76z"/>
	
		<path id="path3774" sodipodi:rx="10.686457" sodipodi:cx="33.929501" sodipodi:cy="33.751392" sodipodi:type="arc" sodipodi:ry="10.686457" fill="#EAE856" stroke="#000000" d="
		M37.391,1029.08c0,7.372-5.992,13.348-13.385,13.348c-7.392,0-13.384-5.976-13.384-13.348c0-7.372,5.992-13.348,13.384-13.348
		C31.398,1015.732,37.391,1021.708,37.391,1029.08z"/>
</g>
</svg>
