<?xml version="1.0" encoding="UTF-8" standalone="no"?>
<!-- Created with Inkscape (http://www.inkscape.org/) -->

<svg
   xmlns:dc="http://purl.org/dc/elements/1.1/"
   xmlns:cc="http://creativecommons.org/ns#"
   xmlns:rdf="http://www.w3.org/1999/02/22-rdf-syntax-ns#"
   xmlns:svg="http://www.w3.org/2000/svg"
   xmlns="http://www.w3.org/2000/svg"
   xmlns:sodipodi="http://sodipodi.sourceforge.net/DTD/sodipodi-0.dtd"
   xmlns:inkscape="http://www.inkscape.org/namespaces/inkscape"
   width="48"
   height="48"
   id="svg2"
   version="1.1"
   inkscape:version="0.48.3.1 r9886"
   sodipodi:docname="meat.svg">
  <defs
     id="defs4" />
  <sodipodi:namedview
     id="base"
     pagecolor="#ffffff"
     bordercolor="#666666"
     borderopacity="1.0"
     inkscape:pageopacity="0.0"
     inkscape:pageshadow="2"
     inkscape:zoom="11.229167"
     inkscape:cx="24.890538"
     inkscape:cy="23.59251"
     inkscape:document-units="px"
     inkscape:current-layer="layer1"
     showgrid="false"
     inkscape:window-width="1280"
     inkscape:window-height="741"
     inkscape:window-x="0"
     inkscape:window-y="27"
     inkscape:window-maximized="1" />
  <metadata
     id="metadata7">
    <rdf:RDF>
      <cc:Work
         rdf:about="">
        <dc:format>image/svg+xml</dc:format>
        <dc:type
           rdf:resource="http://purl.org/dc/dcmitype/StillImage" />
      </cc:Work>
    </rdf:RDF>
  </metadata>
  <g
     inkscape:label="Layer 1"
     inkscape:groupmode="layer"
     id="layer1"
     transform="translate(0,-1004.3623)">
    <path
       sodipodi:type="arc"
       style="fill:#c83737;stroke:#000000"
       id="path3798"
       sodipodi:cx="16.296846"
       sodipodi:cy="14.693877"
       sodipodi:rx="6.1447124"
       sodipodi:ry="6.1447124"
       d="m 22.441559,14.693877 c 0,3.393631 -2.751082,6.144713 -6.144713,6.144713 -3.393631,0 -6.144712,-2.751082 -6.144712,-6.144713 0,-3.393631 2.751081,-6.1447122 6.144712,-6.1447122 3.393631,0 6.144713,2.7510812 6.144713,6.1447122 z"
       transform="matrix(0.51205284,0.88690153,-0.88690153,0.51205284,34.190424,991.39147)"
       inkscape:transform-center-x="-5.5885905"
       inkscape:transform-center-y="-15.126664" />
    <path
       sodipodi:type="arc"
       style="fill:#c83737;stroke:#000000"
       id="path3778"
       sodipodi:cx="16.296846"
       sodipodi:cy="14.693877"
       sodipodi:rx="6.1447124"
       sodipodi:ry="6.1447124"
       d="m 22.441559,14.693877 c 0,3.393631 -2.751082,6.144713 -6.144713,6.144713 -3.393631,0 -6.144712,-2.751082 -6.144712,-6.144713 0,-3.393631 2.751081,-6.1447122 6.144712,-6.1447122 3.393631,0 6.144713,2.7510812 6.144713,6.1447122 z"
       transform="matrix(1.0241057,0,0,1.0241057,-3.0806924,1001.0441)"
       inkscape:transform-center-x="10.305656"
       inkscape:transform-center-y="-12.403311" />
    <path
       sodipodi:type="arc"
       style="fill:#c83737;stroke:#000000"
       id="path3782"
       sodipodi:cx="16.296846"
       sodipodi:cy="14.693877"
       sodipodi:rx="6.1447124"
       sodipodi:ry="6.1447124"
       d="m 22.441559,14.693877 c 0,3.393631 -2.751082,6.144713 -6.144713,6.144713 -3.393631,0 -6.144712,-2.751082 -6.144712,-6.144713 0,-3.393631 2.751081,-6.1447122 6.144712,-6.1447122 3.393631,0 6.144713,2.7510812 6.144713,6.1447122 z"
       transform="matrix(0.51205283,-0.88690153,0.88690153,0.51205283,-13.356569,1038.1486)"
       inkscape:transform-center-x="15.894358"
       inkscape:transform-center-y="2.7234491" />
    <path
       sodipodi:type="arc"
       style="fill:#c83737;stroke:#000000"
       id="path3786"
       sodipodi:cx="16.296846"
       sodipodi:cy="14.693877"
       sodipodi:rx="6.1447124"
       sodipodi:ry="6.1447124"
       d="m 22.441559,14.693877 c 0,3.393631 -2.751082,6.144713 -6.144713,6.144713 -3.393631,0 -6.144712,-2.751082 -6.144712,-6.144713 0,-3.393631 2.751081,-6.1447122 6.144712,-6.1447122 3.393631,0 6.144713,2.7510812 6.144713,6.1447122 z"
       transform="matrix(-0.51205284,-0.88690153,0.88690153,-0.51205284,13.638846,1065.5999)"
       inkscape:transform-center-x="5.5886362"
       inkscape:transform-center-y="15.126665" />
    <path
       sodipodi:type="arc"
       style="fill:#c83737;stroke:#000000"
       id="path3790"
       sodipodi:cx="16.296846"
       sodipodi:cy="14.693877"
       sodipodi:rx="6.1447124"
       sodipodi:ry="6.1447124"
       d="m 22.441559,14.693877 c 0,3.393631 -2.751082,6.144713 -6.144713,6.144713 -3.393631,0 -6.144712,-2.751082 -6.144712,-6.144713 0,-3.393631 2.751081,-6.1447122 6.144712,-6.1447122 3.393631,0 6.144713,2.7510812 6.144713,6.1447122 z"
       transform="matrix(-1.0241057,0,0,-1.0241057,50.910056,1055.9467)"
       inkscape:transform-center-x="-10.305705"
       inkscape:transform-center-y="12.403122" />
    <path
       sodipodi:type="arc"
       style="fill:#c83737;stroke:#000000"
       id="path3794"
       sodipodi:cx="16.296846"
       sodipodi:cy="14.693877"
       sodipodi:rx="6.1447124"
       sodipodi:ry="6.1447124"
       d="m 22.441559,14.693877 c 0,3.393631 -2.751082,6.144713 -6.144713,6.144713 -3.393631,0 -6.144712,-2.751082 -6.144712,-6.144713 0,-3.393631 2.751081,-6.1447122 6.144712,-6.1447122 3.393631,0 6.144713,2.7510812 6.144713,6.1447122 z"
       transform="matrix(-0.51205283,0.88690153,-0.88690153,-0.51205283,61.185836,1018.8424)"
       inkscape:transform-center-x="-15.89431"
       inkscape:transform-center-y="-2.7234382" />
    <path
       inkscape:transform-center-y="5.5885296"
       inkscape:transform-center-x="-15.126597"
       transform="matrix(-0.88690153,0.51205284,-0.51205284,-0.88690153,61.018995,1038.7712)"
       d="m 22.441559,14.693877 c 0,3.393631 -2.751082,6.144713 -6.144713,6.144713 -3.393631,0 -6.144712,-2.751082 -6.144712,-6.144713 0,-3.393631 2.751081,-6.1447122 6.144712,-6.1447122 3.393631,0 6.144713,2.7510812 6.144713,6.1447122 z"
       sodipodi:ry="6.1447124"
       sodipodi:rx="6.1447124"
       sodipodi:cy="14.693877"
       sodipodi:cx="16.296846"
       id="path3792"
       style="fill:#c83737;stroke:#000000"
       sodipodi:type="arc" />
    <path
       inkscape:transform-center-y="-10.305701"
       inkscape:transform-center-x="-12.403161"
       transform="matrix(0,1.0241057,-1.0241057,0,51.365902,1001.5001)"
       d="m 22.441559,14.693877 c 0,3.393631 -2.751082,6.144713 -6.144713,6.144713 -3.393631,0 -6.144712,-2.751082 -6.144712,-6.144713 0,-3.393631 2.751081,-6.1447122 6.144712,-6.1447122 3.393631,0 6.144713,2.7510812 6.144713,6.1447122 z"
       sodipodi:ry="6.1447124"
       sodipodi:rx="6.1447124"
       sodipodi:cy="14.693877"
       sodipodi:cx="16.296846"
       id="path3796"
       style="fill:#c83737;stroke:#000000"
       sodipodi:type="arc" />
    <path
       inkscape:transform-center-y="-15.894306"
       inkscape:transform-center-x="2.7234362"
       transform="matrix(0.88690153,0.51205283,-0.51205283,0.88690153,14.261565,991.2247)"
       d="m 22.441559,14.693877 c 0,3.393631 -2.751082,6.144713 -6.144713,6.144713 -3.393631,0 -6.144712,-2.751082 -6.144712,-6.144713 0,-3.393631 2.751081,-6.1447122 6.144712,-6.1447122 3.393631,0 6.144713,2.7510812 6.144713,6.1447122 z"
       sodipodi:ry="6.1447124"
       sodipodi:rx="6.1447124"
       sodipodi:cy="14.693877"
       sodipodi:cx="16.296846"
       id="path3800"
       style="fill:#ff00ff;stroke:#000000"
       sodipodi:type="arc" />
    <path
       sodipodi:type="arc"
       style="fill:#c83737;stroke:#000000"
       id="path3802"
       sodipodi:cx="16.296846"
       sodipodi:cy="14.693877"
       sodipodi:rx="6.1447124"
       sodipodi:ry="6.1447124"
       d="m 22.441559,14.693877 c 0,3.393631 -2.751082,6.144713 -6.144713,6.144713 -3.393631,0 -6.144712,-2.751082 -6.144712,-6.144713 0,-3.393631 2.751081,-6.1447122 6.144712,-6.1447122 3.393631,0 6.144713,2.7510812 6.144713,6.1447122 z"
       transform="matrix(0.88690153,0.51205283,-0.51205283,0.88690153,14.261565,991.2247)"
       inkscape:transform-center-x="2.7234362"
       inkscape:transform-center-y="-15.894306" />
    <path
       inkscape:transform-center-y="15.894336"
       inkscape:transform-center-x="-2.7234095"
       transform="matrix(-0.88690153,-0.51205283,0.51205283,-0.88690153,33.567724,1065.7667)"
       d="m 22.441559,14.693877 c 0,3.393631 -2.751082,6.144713 -6.144713,6.144713 -3.393631,0 -6.144712,-2.751082 -6.144712,-6.144713 0,-3.393631 2.751081,-6.1447122 6.144712,-6.1447122 3.393631,0 6.144713,2.7510812 6.144713,6.1447122 z"
       sodipodi:ry="6.1447124"
       sodipodi:rx="6.1447124"
       sodipodi:cy="14.693877"
       sodipodi:cx="16.296846"
       id="path3788"
       style="fill:#c83737;stroke:#000000"
       sodipodi:type="arc" />
    <path
       inkscape:transform-center-y="10.305712"
       inkscape:transform-center-x="12.403226"
       transform="matrix(0,-1.0241057,1.0241057,0,-3.5366516,1055.4909)"
       d="m 22.441559,14.693877 c 0,3.393631 -2.751082,6.144713 -6.144713,6.144713 -3.393631,0 -6.144712,-2.751082 -6.144712,-6.144713 0,-3.393631 2.751081,-6.1447122 6.144712,-6.1447122 3.393631,0 6.144713,2.7510812 6.144713,6.1447122 z"
       sodipodi:ry="6.1447124"
       sodipodi:rx="6.1447124"
       sodipodi:cy="14.693877"
       sodipodi:cx="16.296846"
       id="path3784"
       style="fill:#c83737;stroke:#000000"
       sodipodi:type="arc" />
    <path
       inkscape:transform-center-y="-5.5887186"
       inkscape:transform-center-x="15.126598"
       transform="matrix(0.88690153,-0.51205284,0.51205284,0.88690153,-13.189681,1018.2196)"
       d="m 22.441559,14.693877 c 0,3.393631 -2.751082,6.144713 -6.144713,6.144713 -3.393631,0 -6.144712,-2.751082 -6.144712,-6.144713 0,-3.393631 2.751081,-6.1447122 6.144712,-6.1447122 3.393631,0 6.144713,2.7510812 6.144713,6.1447122 z"
       sodipodi:ry="6.1447124"
       sodipodi:rx="6.1447124"
       sodipodi:cy="14.693877"
       sodipodi:cx="16.296846"
       id="path3780"
       style="fill:#c83737;stroke:#000000"
       sodipodi:type="arc" />
    <path
       sodipodi:type="arc"
       style="fill:#ff6600;fill-rule:evenodd;stroke:#000000;stroke-width:1px;stroke-linecap:butt;stroke-linejoin:miter;stroke-opacity:1"
       id="path3774"
       sodipodi:cx="33.929501"
       sodipodi:cy="33.751392"
       sodipodi:rx="10.686457"
       sodipodi:ry="10.686457"
       d="m 44.615957,33.751392 c 0,5.901967 -4.784489,10.686457 -10.686456,10.686457 -5.901967,0 -10.686457,-4.78449 -10.686457,-10.686457 0,-5.901967 4.78449,-10.686456 10.686457,-10.686456 5.901967,0 10.686456,4.784489 10.686456,10.686456 z"
       transform="matrix(1.2524603,0,0,1.2490033,-18.489493,986.9245)" />
  </g>
</svg>
