<?xml version="1.0" encoding="UTF-8" standalone="no"?>
<!-- Created with Inkscape (http://www.inkscape.org/) -->

<svg
   xmlns:dc="http://purl.org/dc/elements/1.1/"
   xmlns:cc="http://creativecommons.org/ns#"
   xmlns:rdf="http://www.w3.org/1999/02/22-rdf-syntax-ns#"
   xmlns:svg="http://www.w3.org/2000/svg"
   xmlns="http://www.w3.org/2000/svg"
   xmlns:sodipodi="http://sodipodi.sourceforge.net/DTD/sodipodi-0.dtd"
   xmlns:inkscape="http://www.inkscape.org/namespaces/inkscape"
   width="32"
   height="32"
   id="svg2"
   version="1.1"
   inkscape:version="0.48.3.1 r9886"
   sodipodi:docname="zin.svg">
  <defs
     id="defs4" />
  <sodipodi:namedview
     id="base"
     pagecolor="#ffffff"
     bordercolor="#666666"
     borderopacity="1.0"
     inkscape:pageopacity="0.0"
     inkscape:pageshadow="2"
     inkscape:zoom="16.84375"
     inkscape:cx="16"
     inkscape:cy="16.332743"
     inkscape:document-units="px"
     inkscape:current-layer="layer1"
     showgrid="false"
     showguides="true"
     inkscape:guide-bbox="true"
     inkscape:window-width="1280"
     inkscape:window-height="741"
     inkscape:window-x="0"
     inkscape:window-y="27"
     inkscape:window-maximized="1">
    <sodipodi:guide
       orientation="1,0"
       position="16.089054,32.296846"
       id="guide3757" />
    <sodipodi:guide
       orientation="0,1"
       position="-17.751391,16.029685"
       id="guide3759" />
  </sodipodi:namedview>
  <metadata
     id="metadata7">
    <rdf:RDF>
      <cc:Work
         rdf:about="">
        <dc:format>image/svg+xml</dc:format>
        <dc:type
           rdf:resource="http://purl.org/dc/dcmitype/StillImage" />
        <dc:title />
      </cc:Work>
    </rdf:RDF>
  </metadata>
  <g
     inkscape:label="Layer 1"
     inkscape:groupmode="layer"
     id="layer1"
     transform="translate(0,-1020.3627)">
    <rect
       style="fill:#f2f2f2;stroke:#333333;stroke-width:1;stroke-miterlimit:4;stroke-dasharray:none"
       id="rect2985"
       width="29.269016"
       height="29.09091"
       x="1.48423"
       y="1022.0249"
       ry="0.89053798"
       rx="1.0092764" />
    <path
       style="fill:#333333;stroke:#333333;stroke-width:1;stroke-miterlimit:4;stroke-dasharray:none"
       d="M 15.59375 5.65625 C 15.100392 5.65625 14.6875 6.0971109 14.6875 6.65625 L 14.6875 14.46875 L 6.875 14.46875 C 6.3158609 14.46875 5.875 14.850392 5.875 15.34375 L 5.875 16.5 C 5.875 16.993358 6.3158609 17.375 6.875 17.375 L 14.6875 17.375 L 14.6875 25.1875 C 14.6875 25.746639 15.100392 26.1875 15.59375 26.1875 L 16.71875 26.1875 C 17.212108 26.1875 17.59375 25.746639 17.59375 25.1875 L 17.59375 17.375 L 25.40625 17.375 C 25.965389 17.375 26.40625 16.993358 26.40625 16.5 L 26.40625 15.34375 C 26.40625 14.850392 25.965389 14.46875 25.40625 14.46875 L 17.59375 14.46875 L 17.59375 6.65625 C 17.59375 6.0971109 17.212108 5.65625 16.71875 5.65625 L 15.59375 5.65625 z "
       transform="translate(0,1020.3627)"
       id="rect3755" />
  </g>
</svg>
